<svg width="25.870117" height="25.870117" viewBox="0 0 25.8701 25.8701" fill="none" xmlns="http://www.w3.org/2000/svg" xmlns:xlink="http://www.w3.org/1999/xlink">
	<desc>
			Created with Pixso.
	</desc>
	<defs>
		<clipPath id="clip4_2031">
			<rect id="icons/Arrow Left 2/Line" width="25.870131" height="25.870131" fill="white" fill-opacity="0"/>
		</clipPath>
	</defs>
	<g clip-path="url(#clip4_2031)">
		<path id="vector (Stroke)" d="M10.6807 7.8313C10.2441 7.42749 9.56152 7.45471 9.1582 7.89221L5.67578 11.6649C5.29395 12.0778 5.29395 12.7142 5.67578 13.1272L9.1582 16.8999C9.56152 17.3374 10.2441 17.3646 10.6807 16.9608C11.1182 16.557 11.1455 15.8751 10.7422 15.4376L8.92969 13.474L19.4023 13.474C19.998 13.474 20.4805 12.9913 20.4805 12.396C20.4805 11.8007 19.998 11.3181 19.4023 11.3181L8.92969 11.3181L10.7422 9.35449C11.1455 8.91699 11.1182 8.23511 10.6807 7.8313Z" fill="#929292" fill-opacity="1.000000" fill-rule="evenodd"/>
	</g>
</svg>
