<svg width="25.870117" height="25.870117" viewBox="0 0 25.8701 25.8701" fill="none" xmlns="http://www.w3.org/2000/svg" xmlns:xlink="http://www.w3.org/1999/xlink">
	<desc>
			Created with Pixso.
	</desc>
	<defs>
		<clipPath id="clip4_2033">
			<rect id="icons/Arrow Right 2/Line" width="25.870131" height="25.870131" fill="white" fill-opacity="0"/>
		</clipPath>
	</defs>
	<g clip-path="url(#clip4_2033)">
		<path id="vector (Stroke)" d="M15.1895 7.83142C15.626 7.42761 16.3086 7.45483 16.7119 7.89233L20.1943 11.665C20.5762 12.0779 20.5762 12.7144 20.1943 13.1273L16.7119 16.9C16.3086 17.3375 15.626 17.3647 15.1895 16.9609C14.752 16.5571 14.7246 15.8752 15.1279 15.4377L16.9404 13.4741L6.46777 13.4741C5.87207 13.4741 5.38965 12.9915 5.38965 12.3961C5.38965 11.8008 5.87207 11.3182 6.46777 11.3182L16.9404 11.3182L15.1279 9.35461C14.7246 8.91711 14.752 8.23523 15.1895 7.83142Z" fill="#23262F" fill-opacity="1.000000" fill-rule="evenodd"/>
	</g>
</svg>